<svg width="100" height="100" viewBox="0 0 100 100" fill="none" xmlns="http://www.w3.org/2000/svg">
<g clip-path="url(#clip0_1_2)">
<rect width="100" height="100" fill="#FFA46F"/>
<path d="M31.3379 12.2776C34.0115 9.50924 38.679 10.6729 39.7402 14.3723L46.377 37.5198C53.2875 41.8198 59.0715 47.7575 63.1865 54.7922L86.2578 62.1067C89.9265 63.2701 90.9599 67.9689 88.1182 70.5647L69.418 87.6448C65.7379 111.63 45.0148 130 20 130C-7.61414 130 -29.9998 107.614 -30 80.0002C-30 54.464 -10.8565 33.399 13.8623 30.3733L31.3379 12.2776ZM47 76.0002C44.2386 76.0002 42 78.2388 42 81.0002C42.0002 83.7615 44.2387 86.0002 47 86.0002C49.7613 86.0002 51.9998 83.7615 52 81.0002C52 78.2388 49.7614 76.0002 47 76.0002ZM20 48.0002C17.2386 48.0002 15 50.2388 15 53.0002C15.0002 55.7615 17.2387 58.0002 20 58.0002C22.7613 58.0002 24.9998 55.7615 25 53.0002C25 50.2388 22.7614 48.0002 20 48.0002Z" fill="white"/>
</g>
<defs>
<clipPath id="clip0_1_2">
<rect width="100" height="100" fill="white"/>
</clipPath>
</defs>
</svg>
