<svg width="500" height="500" viewBox="0 0 500 500" fill="none" xmlns="http://www.w3.org/2000/svg">
<g filter="url(#filter0_d_1_2)">
<path d="M85.727 388.815C76.7574 388.815 69.0605 385.603 62.6363 379.179C56.2121 372.755 53 365.058 53 356.088C53 347.119 56.2121 339.422 62.6363 332.997C69.0605 326.573 76.7574 323.361 85.727 323.361C94.6966 323.361 102.393 326.573 108.818 332.997C115.242 339.422 118.454 347.119 118.454 356.088C118.454 362.027 116.939 367.482 113.909 372.452C110.999 377.421 107.06 381.421 102.09 384.452C97.242 387.361 91.7875 388.815 85.727 388.815ZM85.727 200.453C76.7574 200.453 69.0605 197.241 62.6363 190.817C56.2121 184.393 53 176.696 53 167.726C53 158.757 56.2121 151.06 62.6363 144.636C69.0605 138.211 76.7574 134.999 85.727 134.999C94.6966 134.999 102.393 138.211 108.818 144.636C115.242 151.06 118.454 158.757 118.454 167.726C118.454 173.666 116.939 179.12 113.909 184.09C110.999 189.059 107.06 193.059 102.09 196.09C97.242 198.999 91.7875 200.453 85.727 200.453Z" fill="white"/>
<path d="M320.543 441.542C296.543 441.542 275.149 437.421 256.362 429.178C237.695 420.936 222.847 409.482 211.817 394.815C201.696 381.096 195.853 365.343 194.287 347.556C194.086 345.278 195.915 343.361 198.202 343.361H236.127C238.211 343.361 239.931 344.965 240.218 347.029C241.672 357.486 245.659 366.626 252.18 374.452C259.453 383.058 268.968 389.724 280.725 394.451C292.483 399.179 305.513 401.542 319.816 401.542C335.816 401.542 349.997 398.754 362.361 393.179C374.724 387.603 384.421 379.846 391.451 369.906C398.482 359.967 401.997 348.452 401.997 335.361C401.997 321.664 398.603 309.604 391.815 299.18C385.027 288.634 375.088 280.392 361.997 274.453C348.906 268.513 332.906 265.544 313.998 265.544H288.18C285.971 265.544 284.18 263.753 284.18 261.544V229.544C284.18 227.335 285.971 225.544 288.18 225.544H313.998C328.785 225.544 341.755 222.877 352.906 217.544C364.179 212.211 372.967 204.696 379.27 194.999C385.694 185.302 388.906 173.908 388.906 160.817C388.906 148.211 386.118 137.242 380.542 127.908C374.967 118.575 367.088 111.303 356.906 106.09C346.846 100.878 334.967 98.2724 321.27 98.2724C308.422 98.2724 296.301 100.636 284.907 105.363C273.634 109.969 264.422 116.696 257.271 125.545C250.863 133.365 247.083 142.644 245.93 153.383C245.702 155.504 243.959 157.181 241.826 157.181H206.15C203.883 157.181 202.061 155.296 202.233 153.035C203.592 135.236 209.393 119.527 219.635 105.909C230.665 91.1209 245.089 79.6059 262.907 71.3635C280.846 63.1212 300.543 59 321.997 59C345.028 59 364.785 63.6666 381.27 72.9999C397.754 82.2119 410.421 94.3936 419.269 109.545C428.118 124.696 432.542 141.06 432.542 158.635C432.542 179.605 427.027 197.484 415.997 212.271C405.34 226.717 390.924 236.825 372.749 242.596C371.981 242.84 371.452 243.549 371.452 244.355V244.355C371.452 245.25 372.102 246.013 372.984 246.17C395.766 250.226 413.618 260.138 426.542 275.907C439.754 291.907 446.36 311.725 446.36 335.361C446.36 355.603 440.845 373.785 429.815 389.906C418.906 405.906 403.997 418.512 385.088 427.724C366.179 436.936 344.664 441.542 320.543 441.542Z" fill="white"/>
<path d="M104.148 387.882L104.161 387.874L104.173 387.867C109.691 384.502 114.097 380.036 117.343 374.503C120.751 368.901 122.454 362.734 122.454 356.088C122.454 346.042 118.81 337.332 111.646 330.169C104.483 323.006 95.7727 319.361 85.727 319.361C75.6812 319.361 66.9713 323.006 59.8078 330.169C52.6444 337.332 49 346.042 49 356.088C49 366.134 52.6444 374.844 59.8078 382.007C66.9713 389.171 75.6812 392.815 85.727 392.815C92.4584 392.815 98.6335 391.19 104.148 387.882ZM104.148 199.52L104.161 199.512L104.173 199.505C109.691 196.14 114.097 191.674 117.342 186.141C120.751 180.539 122.454 174.372 122.454 167.726C122.454 157.681 118.81 148.971 111.646 141.807C104.483 134.644 95.7727 130.999 85.727 130.999C75.6812 130.999 66.9713 134.644 59.8078 141.807C52.6444 148.971 49 157.681 49 167.726C49 177.772 52.6444 186.482 59.8078 193.645C66.9713 200.809 75.6812 204.453 85.727 204.453C92.4584 204.453 98.6335 202.829 104.148 199.52ZM254.746 432.838L254.755 432.841C274.128 441.34 296.083 445.542 320.543 445.542C345.182 445.542 367.31 440.834 386.84 431.32C406.317 421.831 421.782 408.786 433.116 392.165C444.619 375.353 450.36 356.378 450.36 335.361C450.36 310.935 443.513 290.18 429.631 273.365C417.498 258.564 401.277 248.746 381.191 243.815C396.775 237.553 409.483 227.835 419.209 214.655C430.819 199.085 436.542 180.34 436.542 158.635C436.542 140.352 431.93 123.292 422.723 107.528C413.489 91.7155 400.285 79.0458 383.23 69.5134C366.03 59.7773 345.565 55 321.997 55C300.017 55 279.744 59.2255 261.237 67.7288L261.228 67.7331C242.849 76.235 227.887 88.1576 216.434 103.509C205.713 117.767 199.659 134.21 198.245 152.73C197.887 157.417 201.659 161.181 206.15 161.181H241.826C246.149 161.181 249.477 157.815 249.907 153.81C250.983 143.789 254.484 135.256 260.365 128.08L260.373 128.07L260.382 128.059C267.08 119.772 275.726 113.435 286.42 109.066L286.43 109.062L286.44 109.058C297.328 104.541 308.926 102.272 321.27 102.272C334.459 102.272 345.681 104.78 355.066 109.642L355.075 109.647L355.084 109.651C364.634 114.54 371.938 121.305 377.109 129.96C382.258 138.58 384.906 148.817 384.906 160.817C384.906 173.224 381.872 183.828 375.935 192.79L375.925 192.804L375.916 192.819C370.049 201.845 361.853 208.886 351.196 213.928L351.188 213.932L351.18 213.935C340.663 218.965 328.304 221.544 313.998 221.544H288.18C283.761 221.544 280.18 225.126 280.18 229.544V261.544C280.18 265.962 283.761 269.544 288.18 269.544H313.998C332.508 269.544 347.909 272.453 360.344 278.095C372.84 283.764 382.138 291.537 388.452 301.345L388.457 301.353L388.463 301.362C394.786 311.072 397.997 322.358 397.997 335.361C397.997 347.69 394.702 358.384 388.186 367.596C381.613 376.889 372.506 384.215 360.716 389.532C348.954 394.837 335.349 397.542 319.816 397.542C305.959 397.542 293.443 395.254 282.217 390.74C270.994 386.228 262.045 379.924 255.244 371.881C249.225 364.653 245.534 356.219 244.18 346.478C243.638 342.581 240.35 339.361 236.127 339.361H198.202C193.671 339.361 189.887 343.188 190.302 347.907C191.93 366.39 198.02 382.851 208.598 397.19L208.609 397.205L208.62 397.219C220.106 412.492 235.525 424.35 254.746 432.838Z" stroke="black" stroke-width="8"/>
</g>
<defs>
<filter id="filter0_d_1_2" x="45" y="51" width="413.36" height="402.542" filterUnits="userSpaceOnUse" color-interpolation-filters="sRGB">
<feFlood flood-opacity="0" result="BackgroundImageFix"/>
<feColorMatrix in="SourceAlpha" type="matrix" values="0 0 0 0 0 0 0 0 0 0 0 0 0 0 0 0 0 0 127 0" result="hardAlpha"/>
<feOffset dx="4" dy="4"/>
<feComposite in2="hardAlpha" operator="out"/>
<feColorMatrix type="matrix" values="0 0 0 0 0 0 0 0 0 0 0 0 0 0 0 0 0 0 1 0"/>
<feBlend mode="normal" in2="BackgroundImageFix" result="effect1_dropShadow_1_2"/>
<feBlend mode="normal" in="SourceGraphic" in2="effect1_dropShadow_1_2" result="shape"/>
</filter>
</defs>
</svg>
